<svg width="470" height="393" viewBox="0 0 470 393" fill="none" xmlns="http://www.w3.org/2000/svg">
<path d="M178.846 38.7172C173.9 45.9777 181.449 50.2907 181.449 50.2907C181.449 50.2907 175.75 59.2165 186.428 62.5803C186.428 62.5803 184.299 77.2845 194.731 80.8981L258.271 76.0689C258.271 76.0689 266.803 24.7124 242.615 15.3037C218.427 5.89504 188.786 28.8089 186.182 36.7689C186.199 36.7855 181.662 34.5874 178.846 38.7172Z" fill="#35174D"/>
<path d="M451.478 280.063C448.744 308.822 390.804 308.122 382.125 308.122C373.462 308.122 368.794 303.976 368.794 303.976L371.415 321.577L375.771 350.803H316.079C316.079 350.803 145.88 194.319 145.88 170.555C145.88 146.809 158.359 137.917 168.299 136.934C178.223 135.952 226.452 123.379 227.188 119.432C227.909 115.486 225.944 106.01 225.944 106.01C197.138 108.708 194.583 80.0156 194.583 80.0156C188.229 67.8926 187.705 48.892 199.365 54.6871C211.025 60.4822 227.057 54.2874 229.432 50.907C231.823 47.5432 237.26 45.6614 237.915 46.4607C238.586 47.2767 237.915 54.1376 237.915 54.1376L243.483 55.0868C243.483 55.0868 245.333 63.846 245.464 66.5437C245.595 69.2414 247.593 69.7743 248.51 69.7743C249.444 69.7743 250.77 56.9685 250.77 56.9685C250.77 56.9685 261.759 55.0868 261.759 66.5437C261.759 78.0007 252.228 78.8 252.228 78.8C254.193 99.4658 262.398 108.841 270.602 113.138C270.602 113.138 270.602 113.138 270.602 113.154C279.167 117.65 287.764 116.601 289.271 117.084C292.235 118.017 321.68 116.268 321.68 116.268C354.76 113.72 370.956 142.263 373.92 145.96C376.884 149.673 393.31 169.856 418.857 200.014C444.42 230.172 454.23 251.287 451.478 280.063Z" fill="#6246EA"/>
<path d="M252.146 135.036C231.856 137.4 227.188 119.432 227.188 119.432C227.909 115.486 225.944 106.01 225.944 106.01C197.138 108.708 194.583 80.0156 194.583 80.0156C188.229 67.8926 187.705 48.892 199.365 54.6871C211.025 60.4822 227.057 54.2874 229.432 50.907C231.823 47.5432 237.26 45.6614 237.915 46.4607C238.586 47.2767 237.915 54.1376 237.915 54.1376L243.483 55.0868C243.483 55.0868 245.333 63.846 245.464 66.5437C245.595 69.2414 247.593 69.7743 248.51 69.7743C249.444 69.7743 250.77 56.9685 250.77 56.9685C250.77 56.9685 261.759 55.0868 261.759 66.5437C261.759 78.0007 252.228 78.8 252.228 78.8C254.193 99.4658 262.397 108.841 270.602 113.138C270.602 113.138 270.602 113.138 270.602 113.154C270.667 113.837 272.076 132.721 252.146 135.036Z" fill="#FDAC9D"/>
<path d="M371.415 321.577C371.415 321.577 349.388 319.029 339.645 315.449C329.917 311.869 311.264 308.805 311.264 308.805V279.63L369.499 300.062L369.089 305.924L371.415 321.577Z" fill="#37164D"/>
<path d="M366.977 255.983C364.995 254.617 364.962 251.57 366.862 250.071C367.828 249.305 369.04 248.689 370.514 248.473C374.886 247.84 391.525 246.941 396.552 246.674C397.535 246.624 398.255 247.407 399.205 247.623C402.775 248.473 408.048 256.449 408.327 264.226C408.703 274.168 409.883 305.691 405.412 307.006C401.498 308.155 380.094 309.654 372.626 306.307C371.267 305.707 370.399 304.342 370.399 302.843C370.432 295.15 370.596 264.892 370.498 262.161C370.432 260.213 369.138 257.498 366.977 255.983Z" fill="#35174D"/>
<path d="M370.497 249.322C370.285 249.322 370.072 249.239 369.908 249.072L348.684 226.741C348.373 226.408 348.373 225.875 348.701 225.559C349.028 225.242 349.552 225.242 349.863 225.575L371.087 247.906C371.398 248.239 371.398 248.772 371.071 249.089C370.907 249.239 370.694 249.322 370.497 249.322Z" fill="#35164B"/>
<path d="M320.861 169.24H50.0787V350.803H320.861V169.24Z" fill="#3A3A47"/>
<path d="M320.861 169.24H50.0787V183.544H320.861V169.24Z" fill="#FFBB4E"/>
<path d="M162.813 223.51H130.306C129.406 223.51 128.669 222.761 128.669 221.845C128.669 220.929 129.406 220.18 130.306 220.18H162.813C163.714 220.18 164.451 220.929 164.451 221.845C164.451 222.761 163.714 223.51 162.813 223.51Z" fill="#E5E6ED"/>
<path d="M171.394 234.151H138.904C138.003 234.151 137.266 233.402 137.266 232.486C137.266 231.57 138.003 230.821 138.904 230.821H171.411C172.311 230.821 173.048 231.57 173.048 232.486C173.048 233.402 172.311 234.151 171.394 234.151Z" fill="#E5E6ED"/>
<path d="M156.967 279.097H136.153C135.252 279.097 134.515 278.347 134.515 277.431C134.515 276.515 135.252 275.766 136.153 275.766H156.967C157.867 275.766 158.604 276.515 158.604 277.431C158.604 278.347 157.884 279.097 156.967 279.097Z" fill="#E5E6ED"/>
<path d="M177.175 291.386H136.153C135.252 291.386 134.515 290.637 134.515 289.721C134.515 288.805 135.252 288.056 136.153 288.056H177.175C178.076 288.056 178.813 288.805 178.813 289.721C178.813 290.637 178.076 291.386 177.175 291.386Z" fill="#E5E6ED"/>
<path d="M207.357 303.676H145.716C144.816 303.676 144.079 302.926 144.079 302.01C144.079 301.095 144.816 300.345 145.716 300.345H207.357C208.257 300.345 208.994 301.095 208.994 302.01C208.994 302.926 208.257 303.676 207.357 303.676Z" fill="#E5E6ED"/>
<path d="M188.753 315.965H152.676C151.776 315.965 151.039 315.216 151.039 314.3C151.039 313.384 151.776 312.635 152.676 312.635H188.753C189.654 312.635 190.391 313.384 190.391 314.3C190.391 315.216 189.654 315.965 188.753 315.965Z" fill="#E5E6ED"/>
<path d="M180.844 329.837H144.767C143.866 329.837 143.129 329.088 143.129 328.172C143.129 327.256 143.866 326.506 144.767 326.506H180.844C181.744 326.506 182.481 327.256 182.481 328.172C182.481 329.088 181.761 329.837 180.844 329.837Z" fill="#E5E6ED"/>
<path d="M252.539 329.837H216.462C215.561 329.837 214.824 329.088 214.824 328.172C214.824 327.256 215.561 326.506 216.462 326.506H252.539C253.44 326.506 254.177 327.256 254.177 328.172C254.177 329.088 253.44 329.837 252.539 329.837Z" fill="#E5E6ED"/>
<path d="M234.492 315.965H198.415C197.515 315.965 196.778 315.216 196.778 314.3C196.778 313.384 197.515 312.635 198.415 312.635H234.492C235.393 312.635 236.13 313.384 236.13 314.3C236.13 315.216 235.393 315.965 234.492 315.965Z" fill="#BB7FEF"/>
<path d="M241.665 211.021H205.588C204.687 211.021 203.95 210.272 203.95 209.356C203.95 208.44 204.687 207.691 205.588 207.691H241.665C242.566 207.691 243.303 208.44 243.303 209.356C243.303 210.272 242.566 211.021 241.665 211.021Z" fill="#BB7FEF"/>
<path d="M230.382 303.676H216.871C215.971 303.676 215.234 302.926 215.234 302.01C215.234 301.095 215.971 300.345 216.871 300.345H230.382C231.283 300.345 232.019 301.095 232.019 302.01C232.019 302.926 231.299 303.676 230.382 303.676Z" fill="#11BDED"/>
<path d="M204.589 329.837H191.079C190.178 329.837 189.441 329.088 189.441 328.172C189.441 327.256 190.178 326.506 191.079 326.506H204.589C205.49 326.506 206.227 327.256 206.227 328.172C206.227 329.088 205.49 329.837 204.589 329.837Z" fill="#11BDED"/>
<path d="M262.463 291.386H188.753C187.853 291.386 187.116 290.637 187.116 289.721C187.116 288.805 187.853 288.056 188.753 288.056H262.463C263.364 288.056 264.101 288.805 264.101 289.721C264.101 290.637 263.364 291.386 262.463 291.386Z" fill="#E5E6ED"/>
<path d="M187.771 245.109H155.28C154.379 245.109 153.642 244.359 153.642 243.444C153.642 242.528 154.379 241.778 155.28 241.778H187.787C188.688 241.778 189.425 242.528 189.425 243.444C189.425 244.359 188.688 245.109 187.771 245.109Z" fill="#E5E6ED"/>
<path d="M284.063 211.021H251.556C250.656 211.021 249.919 210.272 249.919 209.356C249.919 208.44 250.656 207.691 251.556 207.691H284.063C284.964 207.691 285.701 208.44 285.701 209.356C285.701 210.272 284.98 211.021 284.063 211.021Z" fill="#E5E6ED"/>
<path d="M177.175 256.299H155.28C154.379 256.299 153.642 255.55 153.642 254.634C153.642 253.718 154.379 252.969 155.28 252.969H177.175C178.076 252.969 178.813 253.718 178.813 254.634C178.813 255.55 178.076 256.299 177.175 256.299Z" fill="#E5E6ED"/>
<path d="M225.616 266.79H155.28C154.379 266.79 153.642 266.041 153.642 265.125C153.642 264.209 154.379 263.46 155.28 263.46H225.633C226.533 263.46 227.27 264.209 227.27 265.125C227.27 266.041 226.533 266.79 225.616 266.79Z" fill="#E5E6ED"/>
<path d="M254.144 223.51H202.198C201.297 223.51 200.561 222.761 200.561 221.845C200.561 220.929 201.297 220.18 202.198 220.18H254.144C255.045 220.18 255.781 220.929 255.781 221.845C255.781 222.761 255.045 223.51 254.144 223.51Z" fill="#E5E6ED"/>
<path d="M308.087 223.51H262.463C261.562 223.51 260.825 222.761 260.825 221.845C260.825 220.929 261.562 220.18 262.463 220.18H308.087C308.988 220.18 309.725 220.929 309.725 221.845C309.725 222.761 308.988 223.51 308.087 223.51Z" fill="#11BDED"/>
<path d="M218.132 340.361H172.508C171.607 340.361 170.87 339.612 170.87 338.696C170.87 337.78 171.607 337.031 172.508 337.031H218.132C219.033 337.031 219.77 337.78 219.77 338.696C219.77 339.612 219.033 340.361 218.132 340.361Z" fill="#11BDED"/>
<path d="M193.109 223.677H173.867C172.966 223.677 172.229 222.928 172.229 222.012C172.229 221.096 172.966 220.346 173.867 220.346H193.109C194.01 220.346 194.747 221.096 194.747 222.012C194.747 222.928 194.026 223.677 193.109 223.677Z" fill="#F39695"/>
<path d="M217.068 245.109H197.826C196.925 245.109 196.188 244.359 196.188 243.444C196.188 242.528 196.925 241.778 197.826 241.778H217.068C217.969 241.778 218.706 242.528 218.706 243.444C218.706 244.359 217.969 245.109 217.068 245.109Z" fill="#F39695"/>
<path d="M241.6 256.299H185.707C184.807 256.299 184.07 255.55 184.07 254.634C184.07 253.718 184.807 252.969 185.707 252.969H241.6C242.5 252.969 243.237 253.718 243.237 254.634C243.237 255.55 242.5 256.299 241.6 256.299Z" fill="#F39695"/>
<path d="M301.308 256.299H275.646C274.745 256.299 274.008 255.55 274.008 254.634C274.008 253.718 274.745 252.969 275.646 252.969H301.308C302.208 252.969 302.945 253.718 302.945 254.634C302.945 255.55 302.208 256.299 301.308 256.299Z" fill="#F39695"/>
<path d="M267.818 256.299H247.692C246.791 256.299 246.054 255.55 246.054 254.634C246.054 253.718 246.791 252.969 247.692 252.969H267.818C268.719 252.969 269.456 253.718 269.456 254.634C269.456 255.55 268.719 256.299 267.818 256.299Z" fill="#FFBB4E"/>
<path d="M165.221 340.361H145.078C144.177 340.361 143.44 339.612 143.44 338.696C143.44 337.78 144.177 337.031 145.078 337.031H165.204C166.105 337.031 166.842 337.78 166.842 338.696C166.842 339.612 166.121 340.361 165.221 340.361Z" fill="#FFBB4E"/>
<path d="M220.949 200.197H200.823C199.922 200.197 199.185 199.448 199.185 198.532C199.185 197.616 199.922 196.866 200.823 196.866H220.949C221.85 196.866 222.587 197.616 222.587 198.532C222.587 199.448 221.866 200.197 220.949 200.197Z" fill="#FFBB4E"/>
<path d="M116.779 169.223H50.0787V350.786H116.779V169.223Z" fill="#1C1A23"/>
<path d="M116.779 229.772H50.0787V243.444H116.779V229.772Z" fill="black"/>
<path d="M64.8337 216.716H56.9403V224.743H64.8337V216.716Z" fill="#62687E"/>
<path d="M72.3996 232.486H64.5062V240.513H72.3996V232.486Z" fill="#62687E"/>
<path d="M83.9776 246.608H76.0842V254.634H83.9776V246.608Z" fill="#62687E"/>
<path d="M83.9776 260.013H76.0842V268.039H83.9776V260.013Z" fill="#62687E"/>
<path d="M83.9776 273.418H76.0842V281.445H83.9776V273.418Z" fill="#62687E"/>
<path d="M83.9776 286.823H76.0842V294.85H83.9776V286.823Z" fill="#62687E"/>
<path d="M83.9776 300.229H76.0842V308.255H83.9776V300.229Z" fill="#62687E"/>
<path d="M209.256 128.308V208.973H42.2672V128.308C42.2672 121.647 47.5731 116.251 54.1237 116.251H197.4C203.95 116.251 209.256 121.647 209.256 128.308Z" fill="#D9DEF1"/>
<path d="M209.256 128.308V145.51H42.2672V128.308C42.2672 121.647 47.5731 116.251 54.1237 116.251H197.4C203.95 116.251 209.256 121.647 209.256 128.308Z" fill="#33184B"/>
<path d="M110.786 156.867H73.0874C72.4324 156.867 71.9083 157.4 71.9083 158.066V196.4C71.9083 197.066 72.4324 197.599 73.0874 197.599H110.786C111.441 197.599 111.965 197.066 111.965 196.4V158.049C111.965 157.4 111.441 156.867 110.786 156.867ZM109.623 159.248V166.492H74.2665V159.248H109.623ZM74.2665 195.184V168.857H109.623V195.184H74.2665Z" fill="white"/>
<path d="M82.5529 183.178H94.2783C94.9334 183.178 95.4574 182.645 95.4574 181.979C95.4574 181.313 94.9334 180.78 94.2783 180.78H82.5529C81.8978 180.78 81.3738 181.313 81.3738 181.979C81.3902 182.645 81.9142 183.178 82.5529 183.178Z" fill="white"/>
<path d="M82.5529 187.957H91.9365C92.5915 187.957 93.1156 187.424 93.1156 186.758C93.1156 186.092 92.5915 185.559 91.9365 185.559H82.5529C81.8978 185.559 81.3738 186.092 81.3738 186.758C81.3738 187.424 81.9142 187.957 82.5529 187.957Z" fill="white"/>
<path d="M94.2948 190.339H82.5693C81.9143 190.339 81.3903 190.871 81.3903 191.537C81.3903 192.204 81.9143 192.736 82.5693 192.736H94.2948C94.9498 192.736 95.4739 192.204 95.4739 191.537C95.4739 190.871 94.9335 190.339 94.2948 190.339Z" fill="white"/>
<path d="M86.4178 178.066C86.8763 178.532 87.6132 178.532 88.0718 178.066C88.5303 177.599 88.5303 176.85 88.0718 176.384L86.5488 174.835L88.0718 173.286C88.5303 172.82 88.5303 172.071 88.0718 171.604C87.6132 171.138 86.8763 171.138 86.4178 171.604L84.076 173.986C83.6174 174.452 83.6174 175.201 84.076 175.668L86.4178 178.066Z" fill="white"/>
<path d="M97.3243 174.835L95.8177 176.367C95.3591 176.833 95.3591 177.583 95.8177 178.049C96.2762 178.515 97.0131 178.515 97.4717 178.049L99.8135 175.668C100.272 175.201 100.272 174.452 99.8135 173.986L97.4553 171.588C96.9968 171.121 96.2598 171.121 95.8013 171.588C95.3428 172.054 95.3428 172.803 95.8013 173.27L97.3243 174.835Z" fill="white"/>
<path d="M90.2498 178.282C90.823 178.582 91.5272 178.332 91.822 177.749L94.1638 172.97C94.4585 172.387 94.2129 171.671 93.6397 171.371C93.0666 171.072 92.3624 171.321 92.0676 171.904L89.7258 176.683C89.431 177.266 89.6603 177.982 90.2498 178.282Z" fill="white"/>
<path d="M101.32 180.797H98.9784C98.3234 180.797 97.7993 181.33 97.7993 181.996C97.7993 182.662 98.3234 183.195 98.9784 183.195H101.32C101.975 183.195 102.499 182.662 102.499 181.996C102.499 181.33 101.975 180.797 101.32 180.797Z" fill="white"/>
<path d="M101.32 185.576H96.6201C95.9651 185.576 95.441 186.109 95.441 186.775C95.441 187.441 95.9651 187.974 96.6201 187.974H101.32C101.975 187.974 102.499 187.441 102.499 186.775C102.499 186.109 101.975 185.576 101.32 185.576Z" fill="white"/>
<path d="M101.32 190.339H98.9784C98.3234 190.339 97.7993 190.871 97.7993 191.537C97.7993 192.204 98.3234 192.736 98.9784 192.736H101.32C101.975 192.736 102.499 192.204 102.499 191.537C102.499 190.871 101.975 190.339 101.32 190.339Z" fill="white"/>
<path d="M106.02 164.094C106.671 164.094 107.199 163.557 107.199 162.895C107.199 162.233 106.671 161.696 106.02 161.696C105.369 161.696 104.841 162.233 104.841 162.895C104.841 163.557 105.369 164.094 106.02 164.094Z" fill="white"/>
<path d="M101.32 164.094C101.971 164.094 102.499 163.557 102.499 162.895C102.499 162.233 101.971 161.696 101.32 161.696C100.669 161.696 100.141 162.233 100.141 162.895C100.141 163.557 100.669 164.094 101.32 164.094Z" fill="white"/>
<path d="M96.6365 164.094C97.2877 164.094 97.8156 163.557 97.8156 162.895C97.8156 162.233 97.2877 161.696 96.6365 161.696C95.9853 161.696 95.4574 162.233 95.4574 162.895C95.4574 163.557 95.9853 164.094 96.6365 164.094Z" fill="white"/>
<path d="M309.135 191.504C307.776 191.388 307.088 189.772 307.924 188.673C309.528 186.558 312.591 184.177 317.815 185.476C317.815 185.476 327.624 183.045 329.229 194.385C330.818 205.709 332.685 209.755 332.947 222.445C333.209 235.117 327.379 255.617 352.303 255.084L365.306 255.1C365.306 255.1 370.35 254.551 370.612 265.342C370.841 274.6 371.66 296.748 371.873 302.86C371.906 303.759 371.267 304.542 370.383 304.675C364.176 305.557 341.02 308.738 333.471 308.505C324.709 308.239 302.437 300.678 303.764 273.984C305.09 247.274 307.219 217.066 305.352 210.871C303.535 204.776 301.701 199.464 307.694 197.233C307.924 197.149 308.153 197.116 308.398 197.133C309.856 197.233 315.031 198.365 315.702 208.989C316.505 221.396 318.617 239.747 320.206 238.398C321.794 237.049 320.468 207.641 319.141 203.877C317.897 200.263 321.074 192.487 309.135 191.504Z" fill="#FFAA97"/>
<path d="M309.545 315.616V369.403C309.545 376.397 303.961 382.076 297.083 382.076H244.187C237.309 382.076 231.741 376.397 231.741 369.403V315.616C231.741 308.622 237.309 302.96 244.187 302.96H297.083C303.961 302.96 309.545 308.622 309.545 315.616Z" fill="#F7684E"/>
<path d="M309.545 315.616V334.933C295.969 330.187 285.963 335.732 280.706 342.51C275.449 349.287 268.85 362.826 255.225 357.48C241.616 352.151 231.741 359.662 231.741 359.662V315.616C231.741 308.622 237.309 302.96 244.187 302.96H297.083C303.961 302.96 309.545 308.622 309.545 315.616Z" fill="#FFBB4E"/>
<path d="M255.225 345.94C263.175 345.94 269.619 339.386 269.619 331.302C269.619 323.218 263.175 316.665 255.225 316.665C247.275 316.665 240.83 323.218 240.83 331.302C240.83 339.386 247.275 345.94 255.225 345.94Z" fill="white"/>
<path d="M195.107 140.88H78.9993C73.7261 140.88 69.4519 136.534 69.4519 131.172C69.4519 125.81 73.7261 121.464 78.9993 121.464H195.091C200.364 121.464 204.638 125.81 204.638 131.172C204.638 136.551 200.364 140.88 195.107 140.88Z" fill="white"/>
<path d="M56.9403 140.88C51.6672 140.88 47.3929 136.534 47.3929 131.172C47.3929 125.81 51.6672 121.464 56.9403 121.464C62.2135 121.464 66.4877 125.81 66.4877 131.172C66.4877 136.551 62.2135 140.88 56.9403 140.88Z" fill="white"/>
<path d="M195.32 170.472H130.306C129.635 170.472 129.078 169.906 129.078 169.223C129.078 168.54 129.635 167.974 130.306 167.974H195.32C195.992 167.974 196.548 168.54 196.548 169.223C196.548 169.906 195.992 170.472 195.32 170.472Z" fill="white"/>
<path d="M173.048 163.178H129.897C129.455 163.178 129.078 162.612 129.078 161.929C129.078 161.247 129.438 160.68 129.897 160.68H173.048C173.491 160.68 173.867 161.247 173.867 161.929C173.867 162.612 173.491 163.178 173.048 163.178Z" fill="white"/>
<path d="M147.37 177.216H130.306C129.635 177.216 129.078 176.65 129.078 175.967C129.078 175.285 129.635 174.719 130.306 174.719H147.387C148.058 174.719 148.615 175.285 148.615 175.967C148.615 176.65 148.058 177.216 147.37 177.216Z" fill="white"/>
<path d="M162.224 196.433H131.305C130.077 196.433 129.078 195.867 129.078 195.184C129.078 194.502 130.077 193.936 131.305 193.936H162.224C163.452 193.936 164.451 194.502 164.451 195.184C164.451 195.867 163.452 196.433 162.224 196.433Z" fill="white"/>
<path d="M195.32 177.216H152.414C151.743 177.216 151.186 176.65 151.186 175.967C151.186 175.285 151.743 174.719 152.414 174.719H195.32C195.992 174.719 196.548 175.285 196.548 175.967C196.548 176.65 195.992 177.216 195.32 177.216Z" fill="white"/>
<path d="M195.32 184.793H130.306C129.635 184.793 129.078 184.227 129.078 183.544C129.078 182.862 129.635 182.295 130.306 182.295H195.32C195.992 182.295 196.548 182.862 196.548 183.544C196.548 184.227 195.992 184.793 195.32 184.793Z" fill="white"/>
<path d="M166.203 190.488H129.766C129.389 190.488 129.078 189.922 129.078 189.24C129.078 188.557 129.389 187.991 129.766 187.991H166.203C166.58 187.991 166.891 188.557 166.891 189.24C166.891 189.922 166.58 190.488 166.203 190.488Z" fill="white"/>
<path d="M195.697 190.488H169.773C169.495 190.488 169.282 189.922 169.282 189.24C169.282 188.557 169.495 187.991 169.773 187.991H195.697C195.975 187.991 196.188 188.557 196.188 189.24C196.188 189.922 195.959 190.488 195.697 190.488Z" fill="white"/>
<path d="M30.9512 112.505C21.8951 112.322 18.8818 118.849 18.8818 135.235C18.8818 151.622 18.8818 161.097 18.8818 161.097C18.8818 161.097 13.5923 175.418 24.9247 179.248C24.9247 179.248 21.9114 189.473 30.9675 194.335C30.9675 194.335 22.4355 208.69 50.0951 221.995V208.956H42.2836C42.2836 208.956 50.0787 203.544 62.148 200.73C74.2174 197.916 75.724 187.691 71.4498 184.877C67.1756 182.062 53.5996 184.111 53.5996 184.111C53.5996 184.111 73.7916 174.386 73.6278 164.161C73.4641 153.936 61.9024 156.234 61.9024 156.234C61.9024 156.234 67.4376 147.791 64.67 142.679C61.9024 137.567 46.8198 137.3 38.255 143.695L39.0083 126.043C38.9919 126.06 38.0257 112.655 30.9512 112.505Z" fill="#FBA795"/>
<path d="M91.9366 219.614H69.4683V221.829H91.9366V219.614Z" fill="#62687E"/>
<path d="M92.9191 235.384H77.0341V237.599H92.9191V235.384Z" fill="#62687E"/>
<path d="M105.791 249.505H88.5957V251.72H105.791V249.505Z" fill="#62687E"/>
<path d="M105.791 262.91H88.5957V265.125H105.791V262.91Z" fill="#62687E"/>
<path d="M105.791 276.316H88.5957V278.53H105.791V276.316Z" fill="#62687E"/>
<path d="M105.791 289.721H88.5957V291.936H105.791V289.721Z" fill="#62687E"/>
<path d="M105.791 303.126H88.5957V305.341H105.791V303.126Z" fill="#62687E"/>
<path d="M72.3996 315.749H64.5062V323.775H72.3996V315.749Z" fill="#62687E"/>
<path d="M99.5023 318.646H77.0341V320.861H99.5023V318.646Z" fill="#62687E"/>
<path d="M72.3996 328.172H64.5062V336.198H72.3996V328.172Z" fill="#62687E"/>
<path d="M99.5023 331.069H77.0341V333.284H99.5023V331.069Z" fill="#62687E"/>
<path d="M20.2574 161.596C20.11 161.596 19.9626 161.546 19.8316 161.446C19.5041 161.197 19.4386 160.697 19.6678 160.347C20.0117 159.831 28.3309 147.758 37.2232 143.761C37.5999 143.595 38.0257 143.778 38.1731 144.178C38.3204 144.577 38.1567 145.027 37.78 145.193C29.2644 149.007 20.9288 161.13 20.8469 161.247C20.7159 161.48 20.4867 161.596 20.2574 161.596Z" fill="#DD6B66"/>
<path d="M24.9083 180.097C24.7117 180.097 24.4989 180.014 24.3351 179.864C24.0076 179.548 23.9912 179.015 24.3023 178.682C25.1703 177.749 45.8372 155.918 61.8368 155.402C62.2954 155.335 62.672 155.751 62.6884 156.201C62.7048 156.667 62.3445 157.05 61.9023 157.067C46.5741 157.566 25.7107 179.598 25.4978 179.831C25.334 180.014 25.1212 180.097 24.9083 180.097Z" fill="#DD6B66"/>
<path d="M30.9511 195.184C30.7383 195.184 30.5254 195.101 30.3616 194.935C30.0505 194.602 30.0505 194.085 30.378 193.752C30.7055 193.436 38.5334 185.876 53.4522 183.295C53.8944 183.211 54.3201 183.528 54.402 183.977C54.4839 184.427 54.1728 184.86 53.7306 184.943C39.3522 187.424 31.6062 194.868 31.5243 194.951C31.3606 195.101 31.1477 195.184 30.9511 195.184Z" fill="#DD6B66"/>
<path d="M219.377 67.0233C219.115 67.0233 218.869 66.9817 218.624 66.9088C217.838 66.6488 217.51 66.035 217.903 65.5252C218.05 65.338 221.604 61.0207 233.33 63.7775C234.181 63.9752 234.607 64.5785 234.296 65.1091C233.985 65.6501 233.051 65.9205 232.183 65.7229C223.356 63.6423 220.916 66.3471 220.818 66.4615C220.54 66.8256 219.967 67.0233 219.377 67.0233Z" fill="#35174D"/>
<path d="M207.357 68.0389C206.849 68.0389 206.341 67.8943 206.014 67.634C201.969 64.2407 196.679 65.7542 196.09 65.9374C195.304 66.188 194.305 66.0145 193.879 65.5421C193.453 65.0794 193.748 64.4913 194.534 64.2407C197.4 63.3249 204.032 62.6212 208.683 66.5254C209.207 66.9592 209.027 67.5665 208.29 67.8654C208.012 67.9811 207.684 68.0389 207.357 68.0389Z" fill="#35174D"/>
<path d="M218.1 92.4549C218.083 92.4549 218.067 92.4549 218.05 92.4549C217.281 92.405 213.416 92.0886 212.384 90.1735C212.122 89.6906 211.926 88.8913 212.499 87.8588C213.973 85.1778 213.76 75.6026 210.485 73.6043C210.092 73.3711 209.977 72.8549 210.206 72.4552C210.435 72.0556 210.943 71.939 211.336 72.1721C215.594 74.7699 215.807 85.261 213.94 88.6748C213.694 89.1244 213.793 89.3076 213.842 89.3909C214.284 90.2068 216.691 90.7231 218.165 90.8063C218.624 90.8396 218.968 91.2226 218.935 91.6889C218.886 92.1219 218.525 92.4549 218.1 92.4549Z" fill="#DD6B66"/>
<path d="M219.148 97.7506C217.084 97.7506 215.561 97.251 215.528 97.251C215.103 97.1011 214.857 96.6348 215.004 96.2019C215.152 95.7689 215.61 95.5191 216.036 95.669C216.298 95.7523 222.57 97.7506 225.977 92.6715C226.239 92.2885 226.746 92.2053 227.123 92.4551C227.5 92.7215 227.598 93.2377 227.336 93.6207C225.043 97.0012 221.702 97.7506 219.148 97.7506Z" fill="#DD6B66"/>
<path d="M206.276 83.4626C205.146 83.4626 204.147 82.2636 203.852 80.5318C203.541 78.6667 204.229 77.1014 205.457 76.8849C206.112 76.7683 206.784 77.0847 207.308 77.7342C207.717 78.267 208.028 78.9831 208.159 79.7824C208.47 81.6475 207.783 83.2128 206.554 83.4293C206.456 83.446 206.358 83.4626 206.276 83.4626ZM205.719 78.5335C205.604 78.6001 205.293 79.2329 205.473 80.2487C205.637 81.2645 206.129 81.7641 206.292 81.7807C206.407 81.7141 206.718 81.0813 206.538 80.0655C206.358 79.0497 205.867 78.5501 205.719 78.5335Z" fill="#35164B"/>
<path d="M226.926 81.5143C225.796 81.5143 224.798 80.3153 224.503 78.5835C224.192 76.7184 224.879 75.153 226.108 74.9366C226.763 74.8366 227.434 75.1364 227.958 75.7858C228.368 76.3187 228.679 77.0348 228.81 77.8341C229.121 79.6992 228.433 81.2645 227.205 81.481C227.107 81.4977 227.008 81.5143 226.926 81.5143ZM226.37 76.5852C226.255 76.6518 225.944 77.2846 226.124 78.3004C226.288 79.3162 226.779 79.8157 226.943 79.8324C227.057 79.7658 227.369 79.133 227.188 78.1172C227.008 77.1014 226.517 76.6018 226.37 76.5852Z" fill="#35164B"/>
<path d="M227.794 91.7889C221.096 91.7889 215.627 86.2436 215.627 79.4161C215.627 72.6052 221.08 67.0432 227.794 67.0432C234.509 67.0432 239.962 72.5885 239.962 79.4161C239.962 86.2269 234.509 91.7889 227.794 91.7889ZM227.794 68.7085C221.997 68.7085 217.264 73.5044 217.264 79.4161C217.264 85.3277 221.981 90.1236 227.794 90.1236C233.608 90.1236 238.324 85.3277 238.324 79.4161C238.324 73.5044 233.608 68.7085 227.794 68.7085Z" fill="white"/>
<path d="M198.71 93.554C192.012 93.554 186.542 88.0087 186.542 81.1812C186.542 74.3703 191.996 68.8083 198.71 68.8083C205.408 68.8083 210.861 74.3536 210.861 81.1812C210.861 88.0087 205.408 93.554 198.71 93.554ZM198.71 70.4903C192.913 70.4903 188.18 75.2862 188.18 81.1978C188.18 87.1095 192.896 91.9054 198.71 91.9054C204.524 91.9054 209.224 87.1095 209.224 81.1978C209.224 75.2862 204.507 70.4903 198.71 70.4903Z" fill="white"/>
<path d="M215.724 78.2313L210.282 78.5884L210.387 80.2501L215.829 79.893L215.724 78.2313Z" fill="white"/>
<path d="M250.113 56.4603L237.483 74.1978L238.81 75.1744L251.44 57.4369L250.113 56.4603Z" fill="white"/>
<path d="M255.29 73.7208C255.126 73.7208 254.963 73.6708 254.815 73.5709C254.439 73.3045 254.357 72.7882 254.602 72.4052C256.207 70.0572 256.797 67.9257 256.371 66.0606C255.831 63.6793 253.751 62.497 253.734 62.497C253.341 62.2805 253.194 61.7643 253.407 61.3646C253.62 60.9649 254.111 60.8151 254.52 61.0316C254.635 61.0982 257.239 62.5636 257.959 65.661C258.516 68.009 257.828 70.6068 255.945 73.3711C255.814 73.5876 255.552 73.7208 255.29 73.7208Z" fill="#DD6B66"/>
<path d="M253.44 68.7085H253.423C252.965 68.6919 252.621 68.3088 252.621 67.8592C252.621 67.6094 252.719 65.4613 254.078 64.5454C254.57 64.2123 255.421 63.9292 256.649 64.4288C257.075 64.5953 257.272 65.0782 257.108 65.5112C256.944 65.9442 256.453 66.144 256.044 65.9775C255.585 65.7943 255.225 65.7777 254.979 65.9442C254.455 66.2939 254.275 67.4263 254.258 67.9092C254.242 68.3588 253.882 68.7085 253.44 68.7085Z" fill="#DD6B66"/>
</svg>
